{
  "accessors": [
    {
      "bufferView": 2,
      "componentType": 5126,
      "count": 716,
      "max": [
        1.1486359834671021,
        0.25824499130249023,
        1.08570396900177
      ],
      "min": [
        0,
        0.074646003544330597,
        0.89245700836181641
      ],
      "type": "VEC3"
    },
    {
      "bufferView": 2,
      "byteOffset": 8592,
      "componentType": 5126,
      "count": 716,
      "max": [
        0.99736088514328003,
        0.99827289581298828,
        0.8184894323348999
      ],
      "min": [
        -0.99736088514328003,
        -0.99994635581970215,
        -0.9907386302947998
      ],
      "type": "VEC3"
    },
    {
      "bufferView": 3,
      "componentType": 5126,
      "count": 716,
      "max": [
        0.99590510129928589,
        0.98788005113601685,
        0.9999040961265564,
        1
      ],
      "min": [
        -0.99590510129928589,
        -0.99405562877655029,
        -0.99818527698516846,
        -1
      ],
      "type": "VEC4"
    },
    {
      "bufferView": 1,
      "componentType": 5126,
      "count": 716,
      "max": [
        0.77039998769760132,
        0.45190000534057617
      ],
      "min": [
        0.56770002841949463,
        0.31990000605583191
      ],
      "type": "VEC2"
    },
    {
      "bufferView": 0,
      "componentType": 5125,
      "count": 3372,
      "max": [
        715
      ],
      "min": [
        0
      ],
      "type": "SCALAR"
    },
    {
      "bufferView": 2,
      "byteOffset": 17184,
      "componentType": 5126,
      "count": 4,
      "max": [
        0.41366499662399292,
        0.16933101415634155,
        1.1604549884796143
      ],
      "min": [
        0.40108001232147217,
        0.13003501296043396,
        1.1305049657821655
      ],
      "type": "VEC3"
    },
    {
      "bufferView": 1,
      "byteOffset": 5728,
      "componentType": 5126,
      "count": 4,
      "max": [
        0,
        0
      ],
      "min": [
        0,
        0
      ],
      "type": "VEC2"
    },
    {
      "bufferView": 0,
      "byteOffset": 13488,
      "componentType": 5125,
      "count": 4,
      "max": [
        3
      ],
      "min": [
        0
      ],
      "type": "SCALAR"
    },
    {
      "bufferView": 2,
      "byteOffset": 17232,
      "componentType": 5126,
      "count": 4,
      "max": [
        0.57760900259017944,
        0.20440199971199036,
        0.83739101886749268
      ],
      "min": [
        0.57102698087692261,
        0.2037310004234314,
        0.82916098833084106
      ],
      "type": "VEC3"
    },
    {
      "bufferView": 1,
      "byteOffset": 5760,
      "componentType": 5126,
      "count": 4,
      "max": [
        0,
        0
      ],
      "min": [
        0,
        0
      ],
      "type": "VEC2"
    },
    {
      "bufferView": 0,
      "byteOffset": 13504,
      "componentType": 5125,
      "count": 4,
      "max": [
        3
      ],
      "min": [
        0
      ],
      "type": "SCALAR"
    },
    {
      "bufferView": 2,
      "byteOffset": 17280,
      "componentType": 5126,
      "count": 580,
      "max": [
        0.67496800422668457,
        0.33109501004219055,
        1.9662899971008301
      ],
      "min": [
        0.47366797924041748,
        0.044073000550270081,
        1.6069658994674683
      ],
      "type": "VEC3"
    },
    {
      "bufferView": 2,
      "byteOffset": 24240,
      "componentType": 5126,
      "count": 580,
      "max": [
        0.99990677833557129,
        0.99993729591369629,
        0.99948149919509888
      ],
      "min": [
        -0.99990677833557129,
        -0.99989783763885498,
        -0.99985891580581665
      ],
      "type": "VEC3"
    },
    {
      "bufferView": 3,
      "byteOffset": 11456,
      "componentType": 5126,
      "count": 580,
      "max": [
        0.97868186235427856,
        0.99985891580581665,
        0.8179284930229187,
        1
      ],
      "min": [
        -0.97868186235427856,
        -0.99919027090072632,
        -0.99993729591369629,
        -1
      ],
      "type": "VEC4"
    },
    {
      "bufferView": 1,
      "byteOffset": 5792,
      "componentType": 5126,
      "count": 580,
      "max": [
        0.99370002746582031,
        0.99119997024536133
      ],
      "min": [
        0.015699999406933784,
        0.012000000104308128
      ],
      "type": "VEC2"
    },
    {
      "bufferView": 0,
      "byteOffset": 13520,
      "componentType": 5125,
      "count": 3060,
      "max": [
        579
      ],
      "min": [
        0
      ],
      "type": "SCALAR"
    },
    {
      "bufferView": 2,
      "byteOffset": 31200,
      "componentType": 5126,
      "count": 2500,
      "max": [
        1.0793569087982178,
        0.39044800400733948,
        1.6508239507675171
      ],
      "min": [
        0.069279015064239502,
        0.016725003719329834,
        0.034219000488519669
      ],
      "type": "VEC3"
    },
    {
      "bufferView": 2,
      "byteOffset": 61200,
      "componentType": 5126,
      "count": 2500,
      "max": [
        0.99952441453933716,
        0.99702328443527222,
        0.9999314546585083
      ],
      "min": [
        -0.99952441453933716,
        -0.99662679433822632,
        -0.99998641014099121
      ],
      "type": "VEC3"
    },
    {
      "bufferView": 3,
      "byteOffset": 20736,
      "componentType": 5126,
      "count": 2500,
      "max": [
        0.99988842010498047,
        0.9999813437461853,
        0.97569066286087036,
        1
      ],
      "min": [
        -0.99988842010498047,
        -0.99905252456665039,
        -0.97319084405899048,
        -1
      ],
      "type": "VEC4"
    },
    {
      "bufferView": 1,
      "byteOffset": 10432,
      "componentType": 5126,
      "count": 2500,
      "max": [
        0.99220001697540283,
        0.97079998254776001
      ],
      "min": [
        0.0017000000225380063,
        0.0059000002220273018
      ],
      "type": "VEC2"
    },
    {
      "bufferView": 0,
      "byteOffset": 25760,
      "componentType": 5125,
      "count": 9840,
      "max": [
        2499
      ],
      "min": [
        0
      ],
      "type": "SCALAR"
    },
    {
      "bufferView": 2,
      "byteOffset": 91200,
      "componentType": 5126,
      "count": 3986,
      "max": [
        1.0382299423217773,
        0.37752002477645874,
        1.2385389804840088
      ],
      "min": [
        0.11089098453521729,
        0.02598901093006134,
        0.093933001160621643
      ],
      "type": "VEC3"
    },
    {
      "bufferView": 2,
      "byteOffset": 139032,
      "componentType": 5126,
      "count": 3986,
      "max": [
        0.99993622303009033,
        0.99477887153625488,
        1
      ],
      "min": [
        -0.99993622303009033,
        -0.99911671876907349,
        -1
      ],
      "type": "VEC3"
    },
    {
      "bufferView": 3,
      "byteOffset": 60736,
      "componentType": 5126,
      "count": 3986,
      "max": [
        0.99999243021011353,
        0.99995195865631104,
        0.99974501132965088,
        1
      ],
      "min": [
        -0.99989783763885498,
        -0.99894571304321289,
        -0.99874436855316162,
        -1
      ],
      "type": "VEC4"
    },
    {
      "bufferView": 1,
      "byteOffset": 30432,
      "componentType": 5126,
      "count": 3986,
      "max": [
        1.0003000497817993,
        1.0888999700546265
      ],
      "min": [
        0.0051000001840293407,
        0.00559999980032444
      ],
      "type": "VEC2"
    },
    {
      "bufferView": 0,
      "byteOffset": 65120,
      "componentType": 5125,
      "count": 12837,
      "max": [
        3985
      ],
      "min": [
        0
      ],
      "type": "SCALAR"
    },
    {
      "bufferView": 2,
      "byteOffset": 186864,
      "componentType": 5126,
      "count": 2962,
      "max": [
        1.0839340686798096,
        0.38846901059150696,
        1.6371849775314331
      ],
      "min": [
        0.064701974391937256,
        0,
        0
      ],
      "type": "VEC3"
    },
    {
      "bufferView": 2,
      "byteOffset": 222408,
      "componentType": 5126,
      "count": 2962,
      "max": [
        0.99990475177764893,
        1,
        0.99999833106994629
      ],
      "min": [
        -0.99990475177764893,
        -1,
        -1
      ],
      "type": "VEC3"
    },
    {
      "bufferView": 3,
      "byteOffset": 124512,
      "componentType": 5126,
      "count": 2962,
      "max": [
        1,
        1,
        0.99996960163116455,
        1
      ],
      "min": [
        -1,
        -1,
        -0.99925082921981812,
        -1
      ],
      "type": "VEC4"
    },
    {
      "bufferView": 1,
      "byteOffset": 62320,
      "componentType": 5126,
      "count": 2962,
      "max": [
        0.99959999322891235,
        0.99750000238418579
      ],
      "min": [
        0.0052999998442828655,
        0.0015999999595806003
      ],
      "type": "VEC2"
    },
    {
      "bufferView": 0,
      "byteOffset": 116468,
      "componentType": 5125,
      "count": 13410,
      "max": [
        2961
      ],
      "min": [
        0
      ],
      "type": "SCALAR"
    }
  ],
  "asset": {
    "extras": {
      "author": "TheWarArmoury (https://sketchfab.com/TheWarArmoury)",
      "license": "CC-BY-4.0 (http://creativecommons.org/licenses/by/4.0/)",
      "source": "https://sketchfab.com/3d-models/gondor-armour-eaf171fc039b4cc7aff2af5cd9355b82",
      "title": "Gondor Armour"
    },
    "generator": "Sketchfab-9.55.0",
    "version": "2.0"
  },
  "bufferViews": [
    {
      "buffer": 0,
      "byteLength": 170108,
      "byteOffset": 0,
      "name": "floatBufferViews",
      "target": 34963
    },
    {
      "buffer": 0,
      "byteLength": 86016,
      "byteOffset": 170108,
      "byteStride": 8,
      "name": "floatBufferViews",
      "target": 34962
    },
    {
      "buffer": 0,
      "byteLength": 257952,
      "byteOffset": 256124,
      "byteStride": 12,
      "name": "floatBufferViews",
      "target": 34962
    },
    {
      "buffer": 0,
      "byteLength": 171904,
      "byteOffset": 514076,
      "byteStride": 16,
      "name": "floatBufferViews",
      "target": 34962
    }
  ],
  "buffers": [
    {
      "byteLength": 685980,
      "uri": "scene.bin"
    }
  ],
  "images": [
    {
      "uri": "textures/armour_baseColor.png"
    },
    {
      "uri": "textures/armour_metallicRoughness.png"
    },
    {
      "uri": "textures/armour_normal.png"
    },
    {
      "uri": "textures/armour2_baseColor.png"
    },
    {
      "uri": "textures/armour2_metallicRoughness.png"
    },
    {
      "uri": "textures/armour2_normal.png"
    },
    {
      "uri": "textures/armour_NONE_baseColor.png"
    },
    {
      "uri": "textures/armour_NONE_metallicRoughness.png"
    },
    {
      "uri": "textures/helmet_baseColor.png"
    },
    {
      "uri": "textures/helmet_metallicRoughness.png"
    },
    {
      "uri": "textures/helmet_normal.png"
    }
  ],
  "materials": [
    {
      "doubleSided": true,
      "emissiveFactor": [
        0,
        0,
        0
      ],
      "name": "armour",
      "normalTexture": {
        "index": 2,
        "scale": 1,
        "texCoord": 0
      },
      "occlusionTexture": {
        "index": 1,
        "strength": 1,
        "texCoord": 0
      },
      "pbrMetallicRoughness": {
        "baseColorFactor": [
          1,
          1,
          1,
          1
        ],
        "baseColorTexture": {
          "index": 0,
          "texCoord": 0
        },
        "metallicFactor": 1,
        "metallicRoughnessTexture": {
          "index": 1,
          "texCoord": 0
        },
        "roughnessFactor": 1
      }
    },
    {
      "doubleSided": true,
      "emissiveFactor": [
        0,
        0,
        0
      ],
      "name": "armour2",
      "normalTexture": {
        "index": 5,
        "scale": 1,
        "texCoord": 0
      },
      "occlusionTexture": {
        "index": 4,
        "strength": 1,
        "texCoord": 0
      },
      "pbrMetallicRoughness": {
        "baseColorFactor": [
          1,
          1,
          1,
          1
        ],
        "baseColorTexture": {
          "index": 3,
          "texCoord": 0
        },
        "metallicFactor": 1,
        "metallicRoughnessTexture": {
          "index": 4,
          "texCoord": 0
        },
        "roughnessFactor": 1
      }
    },
    {
      "doubleSided": true,
      "emissiveFactor": [
        0,
        0,
        0
      ],
      "name": "armour_NONE",
      "normalTexture": {
        "index": 2,
        "scale": 1,
        "texCoord": 0
      },
      "occlusionTexture": {
        "index": 7,
        "strength": 1,
        "texCoord": 0
      },
      "pbrMetallicRoughness": {
        "baseColorFactor": [
          1,
          1,
          1,
          1
        ],
        "baseColorTexture": {
          "index": 6,
          "texCoord": 0
        },
        "metallicFactor": 1,
        "metallicRoughnessTexture": {
          "index": 7,
          "texCoord": 0
        },
        "roughnessFactor": 1
      }
    },
    {
      "doubleSided": true,
      "emissiveFactor": [
        0,
        0,
        0
      ],
      "name": "helmet",
      "normalTexture": {
        "index": 10,
        "scale": 1,
        "texCoord": 0
      },
      "occlusionTexture": {
        "index": 9,
        "strength": 1,
        "texCoord": 0
      },
      "pbrMetallicRoughness": {
        "baseColorFactor": [
          1,
          1,
          1,
          1
        ],
        "baseColorTexture": {
          "index": 8,
          "texCoord": 0
        },
        "metallicFactor": 1,
        "metallicRoughnessTexture": {
          "index": 9,
          "texCoord": 0
        },
        "roughnessFactor": 1
      }
    }
  ],
  "meshes": [
    {
      "primitives": [
        {
          "attributes": {
            "NORMAL": 1,
            "POSITION": 0,
            "TANGENT": 2,
            "TEXCOORD_0": 3
          },
          "indices": 4,
          "material": 0,
          "mode": 4
        }
      ]
    },
    {
      "primitives": [
        {
          "attributes": {
            "POSITION": 5,
            "TEXCOORD_0": 6
          },
          "indices": 7,
          "material": 1,
          "mode": 1
        }
      ]
    },
    {
      "primitives": [
        {
          "attributes": {
            "POSITION": 8,
            "TEXCOORD_0": 9
          },
          "indices": 10,
          "material": 2,
          "mode": 1
        }
      ]
    },
    {
      "primitives": [
        {
          "attributes": {
            "NORMAL": 12,
            "POSITION": 11,
            "TANGENT": 13,
            "TEXCOORD_0": 14
          },
          "indices": 15,
          "material": 3,
          "mode": 4
        }
      ]
    },
    {
      "primitives": [
        {
          "attributes": {
            "NORMAL": 17,
            "POSITION": 16,
            "TANGENT": 18,
            "TEXCOORD_0": 19
          },
          "indices": 20,
          "material": 1,
          "mode": 4
        }
      ]
    },
    {
      "primitives": [
        {
          "attributes": {
            "NORMAL": 22,
            "POSITION": 21,
            "TANGENT": 23,
            "TEXCOORD_0": 24
          },
          "indices": 25,
          "material": 1,
          "mode": 4
        }
      ]
    },
    {
      "primitives": [
        {
          "attributes": {
            "NORMAL": 27,
            "POSITION": 26,
            "TANGENT": 28,
            "TEXCOORD_0": 29
          },
          "indices": 30,
          "material": 2,
          "mode": 4
        }
      ]
    }
  ],
  "nodes": [
    {
      "children": [
        1
      ],
      "name": "RootNode (gltf orientation matrix)",
      "rotation": [
        -0.70710678118654746,
        -0,
        -0,
        0.70710678118654757
      ]
    },
    {
      "children": [
        2
      ],
      "name": "RootNode (model correction matrix)"
    },
    {
      "children": [
        3
      ],
      "matrix": [
        1,
        0,
        0,
        0,
        0,
        1,
        0,
        0,
        0,
        0,
        1,
        0,
        -0.57431799173355103,
        -0.19469800591468811,
        -0.0030040000565350056,
        1
      ],
      "name": "plateArmour01.obj.cleaner.materialmerger.gles"
    },
    {
      "children": [
        4,
        5,
        6,
        7,
        8,
        9,
        10
      ],
      "name": ""
    },
    {
      "mesh": 0,
      "name": ""
    },
    {
      "mesh": 1,
      "name": ""
    },
    {
      "mesh": 2,
      "name": ""
    },
    {
      "mesh": 3,
      "name": ""
    },
    {
      "mesh": 4,
      "name": ""
    },
    {
      "mesh": 5,
      "name": ""
    },
    {
      "mesh": 6,
      "name": ""
    }
  ],
  "samplers": [
    {
      "magFilter": 9729,
      "minFilter": 9987,
      "wrapS": 10497,
      "wrapT": 10497
    }
  ],
  "scene": 0,
  "scenes": [
    {
      "name": "OSG_Scene",
      "nodes": [
        0
      ]
    }
  ],
  "textures": [
    {
      "sampler": 0,
      "source": 0
    },
    {
      "sampler": 0,
      "source": 1
    },
    {
      "sampler": 0,
      "source": 2
    },
    {
      "sampler": 0,
      "source": 3
    },
    {
      "sampler": 0,
      "source": 4
    },
    {
      "sampler": 0,
      "source": 5
    },
    {
      "sampler": 0,
      "source": 6
    },
    {
      "sampler": 0,
      "source": 7
    },
    {
      "sampler": 0,
      "source": 8
    },
    {
      "sampler": 0,
      "source": 9
    },
    {
      "sampler": 0,
      "source": 10
    }
  ]
}

