{
  "accessors": [
    {
      "bufferView": 2,
      "componentType": 5126,
      "count": 3409,
      "max": [
        2.9237289428710938,
        0.310822993516922,
        8.7517099380493164
      ],
      "min": [
        -2.9237289428710938,
        -0.310822993516922,
        -8.457056999206543
      ],
      "type": "VEC3"
    },
    {
      "bufferView": 2,
      "byteOffset": 40908,
      "componentType": 5126,
      "count": 3409,
      "max": [
        0.9999922513961792,
        1,
        1
      ],
      "min": [
        -0.9999922513961792,
        -1,
        -1
      ],
      "type": "VEC3"
    },
    {
      "bufferView": 3,
      "componentType": 5126,
      "count": 3409,
      "max": [
        1,
        1,
        1,
        1
      ],
      "min": [
        -0.99999666213989258,
        -1,
        -1,
        -1
      ],
      "type": "VEC4"
    },
    {
      "bufferView": 1,
      "componentType": 5126,
      "count": 3409,
      "max": [
        0.9975389838218689,
        0.98605000972747803
      ],
      "min": [
        0.010920999571681023,
        0.0055740000680088997
      ],
      "type": "VEC2"
    },
    {
      "bufferView": 0,
      "componentType": 5125,
      "count": 14688,
      "max": [
        3408
      ],
      "min": [
        0
      ],
      "type": "SCALAR"
    }
  ],
  "asset": {
    "extras": {
      "author": "LuddePudde (https://sketchfab.com/ludde5000)",
      "license": "CC-BY-4.0 (http://creativecommons.org/licenses/by/4.0/)",
      "source": "https://sketchfab.com/3d-models/gimlis-double-bladed-battle-axe-f59b508203374beb881b21164b96ee73",
      "title": "Gimli's Double-bladed Battle Axe"
    },
    "generator": "Sketchfab-9.80.0",
    "version": "2.0"
  },
  "bufferViews": [
    {
      "buffer": 0,
      "byteLength": 58752,
      "byteOffset": 0,
      "name": "floatBufferViews",
      "target": 34963
    },
    {
      "buffer": 0,
      "byteLength": 27272,
      "byteOffset": 58752,
      "byteStride": 8,
      "name": "floatBufferViews",
      "target": 34962
    },
    {
      "buffer": 0,
      "byteLength": 81816,
      "byteOffset": 86024,
      "byteStride": 12,
      "name": "floatBufferViews",
      "target": 34962
    },
    {
      "buffer": 0,
      "byteLength": 54544,
      "byteOffset": 167840,
      "byteStride": 16,
      "name": "floatBufferViews",
      "target": 34962
    }
  ],
  "buffers": [
    {
      "byteLength": 222384,
      "uri": "scene.bin"
    }
  ],
  "images": [
    {
      "uri": "textures/GimliBattleaxeMat_baseColor.jpeg"
    },
    {
      "uri": "textures/GimliBattleaxeMat_metallicRoughness.png"
    },
    {
      "uri": "textures/GimliBattleaxeMat_normal.png"
    }
  ],
  "materials": [
    {
      "doubleSided": false,
      "name": "GimliBattleaxeMat",
      "normalTexture": {
        "index": 2,
        "scale": 1,
        "texCoord": 0
      },
      "occlusionTexture": {
        "index": 1,
        "strength": 1,
        "texCoord": 0
      },
      "pbrMetallicRoughness": {
        "baseColorFactor": [
          1,
          1,
          1,
          1
        ],
        "baseColorTexture": {
          "index": 0,
          "texCoord": 0
        },
        "metallicFactor": 1,
        "metallicRoughnessTexture": {
          "index": 1,
          "texCoord": 0
        },
        "roughnessFactor": 1
      }
    }
  ],
  "meshes": [
    {
      "name": "defaultMaterial",
      "primitives": [
        {
          "attributes": {
            "NORMAL": 1,
            "POSITION": 0,
            "TANGENT": 2,
            "TEXCOORD_0": 3
          },
          "indices": 4,
          "material": 0,
          "mode": 4
        }
      ]
    }
  ],
  "nodes": [
    {
      "children": [
        1
      ],
      "name": "RootNode (gltf orientation matrix)",
      "rotation": [
        -0.70710678118654746,
        -0,
        -0,
        0.70710678118654757
      ]
    },
    {
      "children": [
        2
      ],
      "matrix": [
        0.060589132911874621,
        -0.03971199862786623,
        0.0095057993490752501,
        0,
        0.011135388997560502,
        0.032432948929527861,
        0.064517851117625646,
        0,
        -0.039286206538921675,
        -0.05205292282745333,
        0.032947426110158773,
        0,
        1.8545060157775879,
        0.11376885324716568,
        0.42007532715797424,
        1
      ],
      "name": "RootNode (model correction matrix)"
    },
    {
      "children": [
        3
      ],
      "matrix": [
        1,
        0,
        0,
        0,
        0,
        -4.3711390063094768e-08,
        0.999999999999999,
        0,
        0,
        -0.999999999999999,
        -4.3711390063094768e-08,
        0,
        0,
        0,
        0,
        1
      ],
      "name": "Collada visual scene group"
    },
    {
      "children": [
        4
      ],
      "name": "GimliBattleaxe"
    },
    {
      "mesh": 0,
      "name": "defaultMaterial"
    }
  ],
  "samplers": [
    {
      "magFilter": 9729,
      "minFilter": 9987,
      "wrapS": 10497,
      "wrapT": 10497
    }
  ],
  "scene": 0,
  "scenes": [
    {
      "name": "OSG_Scene",
      "nodes": [
        0
      ]
    }
  ],
  "textures": [
    {
      "sampler": 0,
      "source": 0
    },
    {
      "sampler": 0,
      "source": 1
    },
    {
      "sampler": 0,
      "source": 2
    }
  ]
}

