{
  "accessors": [
    {
      "bufferView": 2,
      "componentType": 5126,
      "count": 7319,
      "max": [
        7.9618377685546875,
        -0.075059659779071808,
        0.45449331402778625
      ],
      "min": [
        -12.831705093383789,
        -0.36684677004814148,
        -0.47557199001312256
      ],
      "type": "VEC3"
    },
    {
      "bufferView": 2,
      "byteOffset": 87828,
      "componentType": 5126,
      "count": 7319,
      "max": [
        0.99998950958251953,
        0.99999725818634033,
        0.99998188018798828
      ],
      "min": [
        -0.99975383281707764,
        -0.99999892711639404,
        -0.99999320507049561
      ],
      "type": "VEC3"
    },
    {
      "bufferView": 3,
      "componentType": 5126,
      "count": 7319,
      "max": [
        0.99999833106994629,
        0.99684244394302368,
        0.99898409843444824,
        1
      ],
      "min": [
        -0.99999940395355225,
        -0.99405670166015625,
        -1,
        -1
      ],
      "type": "VEC4"
    },
    {
      "bufferView": 1,
      "componentType": 5126,
      "count": 7319,
      "max": [
        0.97756713628768921,
        0.99755859375
      ],
      "min": [
        0.00244140625,
        0.00244140625
      ],
      "type": "VEC2"
    },
    {
      "bufferView": 0,
      "componentType": 5125,
      "count": 42432,
      "max": [
        7318
      ],
      "min": [
        0
      ],
      "type": "SCALAR"
    },
    {
      "bufferView": 2,
      "byteOffset": 175656,
      "componentType": 5126,
      "count": 37162,
      "max": [
        8.441279411315918,
        0.22584685683250427,
        2.4560003280639648
      ],
      "min": [
        7.5405211448669434,
        -0.57017236948013306,
        -2.4780001640319824
      ],
      "type": "VEC3"
    },
    {
      "bufferView": 2,
      "byteOffset": 621600,
      "componentType": 5126,
      "count": 37162,
      "max": [
        1,
        1,
        1
      ],
      "min": [
        -1,
        -1,
        -1
      ],
      "type": "VEC3"
    },
    {
      "bufferView": 3,
      "byteOffset": 117104,
      "componentType": 5126,
      "count": 37162,
      "max": [
        1,
        0.99996906518936157,
        1,
        1
      ],
      "min": [
        -1,
        -0.9999690055847168,
        -0.99999672174453735,
        -1
      ],
      "type": "VEC4"
    },
    {
      "bufferView": 1,
      "byteOffset": 58552,
      "componentType": 5126,
      "count": 37162,
      "max": [
        0.99590605497360229,
        0.12519383430480957
      ],
      "min": [
        0.023071402683854103,
        0.00244140625
      ],
      "type": "VEC2"
    },
    {
      "bufferView": 0,
      "byteOffset": 169728,
      "componentType": 5125,
      "count": 211680,
      "max": [
        37161
      ],
      "min": [
        0
      ],
      "type": "SCALAR"
    },
    {
      "bufferView": 2,
      "byteOffset": 1067544,
      "componentType": 5126,
      "count": 4934,
      "max": [
        8.1985349655151367,
        -0.10293935984373093,
        -2.1531848907470703
      ],
      "min": [
        7.9298720359802246,
        -0.24263747036457062,
        -2.3670454025268555
      ],
      "type": "VEC3"
    },
    {
      "bufferView": 2,
      "byteOffset": 1126752,
      "componentType": 5126,
      "count": 4934,
      "max": [
        0.99876093864440918,
        0.99999815225601196,
        1
      ],
      "min": [
        -0.9999656081199646,
        -0.99998670816421509,
        -1
      ],
      "type": "VEC3"
    },
    {
      "bufferView": 3,
      "byteOffset": 711696,
      "componentType": 5126,
      "count": 4934,
      "max": [
        0.99999886751174927,
        0.99560844898223877,
        0.99878615140914917,
        1
      ],
      "min": [
        -1,
        -0.99604475498199463,
        -0.9987749457359314,
        -1
      ],
      "type": "VEC4"
    },
    {
      "bufferView": 1,
      "byteOffset": 355848,
      "componentType": 5126,
      "count": 4934,
      "max": [
        0.90018624067306519,
        0.065371476113796234
      ],
      "min": [
        0.14478838443756104,
        0.00244140625
      ],
      "type": "VEC2"
    },
    {
      "bufferView": 0,
      "byteOffset": 1016448,
      "componentType": 5125,
      "count": 27312,
      "max": [
        4933
      ],
      "min": [
        0
      ],
      "type": "SCALAR"
    },
    {
      "bufferView": 2,
      "byteOffset": 1185960,
      "componentType": 5126,
      "count": 4942,
      "max": [
        8.1985349655151367,
        -0.10293936729431152,
        2.3387722969055176
      ],
      "min": [
        7.9298720359802246,
        -0.24263747036457062,
        2.1249115467071533
      ],
      "type": "VEC3"
    },
    {
      "bufferView": 2,
      "byteOffset": 1245264,
      "componentType": 5126,
      "count": 4942,
      "max": [
        0.99874299764633179,
        0.99999803304672241,
        1
      ],
      "min": [
        -0.99997347593307495,
        -0.99998682737350464,
        -1
      ],
      "type": "VEC3"
    },
    {
      "bufferView": 3,
      "byteOffset": 790640,
      "componentType": 5126,
      "count": 4942,
      "max": [
        0.99998253583908081,
        0.99602806568145752,
        0.99995887279510498,
        1
      ],
      "min": [
        -1,
        -0.99554407596588135,
        -0.99877309799194336,
        -1
      ],
      "type": "VEC4"
    },
    {
      "bufferView": 1,
      "byteOffset": 395320,
      "componentType": 5126,
      "count": 4942,
      "max": [
        0.93113136291503906,
        0.065602794289588928
      ],
      "min": [
        0.054016396403312683,
        0.00244140625
      ],
      "type": "VEC2"
    },
    {
      "bufferView": 0,
      "byteOffset": 1125696,
      "componentType": 5125,
      "count": 27312,
      "max": [
        4941
      ],
      "min": [
        0
      ],
      "type": "SCALAR"
    },
    {
      "bufferView": 2,
      "byteOffset": 1304568,
      "componentType": 5126,
      "count": 1386,
      "max": [
        8.2202119827270508,
        0.021890567615628242,
        0.34312275052070618
      ],
      "min": [
        8.1794853210449219,
        -0.36587485671043396,
        -0.36477062106132507
      ],
      "type": "VEC3"
    },
    {
      "bufferView": 2,
      "byteOffset": 1321200,
      "componentType": 5126,
      "count": 1386,
      "max": [
        1,
        0.9999849796295166,
        0.99987530708312988
      ],
      "min": [
        -0.99999725818634033,
        -0.99995380640029907,
        -0.99993914365768433
      ],
      "type": "VEC3"
    },
    {
      "bufferView": 3,
      "byteOffset": 869712,
      "componentType": 5126,
      "count": 1386,
      "max": [
        0.96982169151306152,
        0.99999898672103882,
        0.99999946355819702,
        1
      ],
      "min": [
        -0.94292545318603516,
        -0.99999678134918213,
        -0.99997884035110474,
        -1
      ],
      "type": "VEC4"
    },
    {
      "bufferView": 1,
      "byteOffset": 434856,
      "componentType": 5126,
      "count": 1386,
      "max": [
        0.91013169288635254,
        0.015731573104858398
      ],
      "min": [
        0.1427253782749176,
        0.00244140625
      ],
      "type": "VEC2"
    },
    {
      "bufferView": 0,
      "byteOffset": 1234944,
      "componentType": 5125,
      "count": 7680,
      "max": [
        1385
      ],
      "min": [
        0
      ],
      "type": "SCALAR"
    },
    {
      "bufferView": 2,
      "byteOffset": 1337832,
      "componentType": 5126,
      "count": 6020,
      "max": [
        10.234526634216309,
        0.024082956835627556,
        0.37790012359619141
      ],
      "min": [
        8.1099309921264648,
        -0.36909687519073486,
        -0.40027153491973877
      ],
      "type": "VEC3"
    },
    {
      "bufferView": 2,
      "byteOffset": 1410072,
      "componentType": 5126,
      "count": 6020,
      "max": [
        1,
        1,
        1
      ],
      "min": [
        -1,
        -1,
        -1
      ],
      "type": "VEC3"
    },
    {
      "bufferView": 3,
      "byteOffset": 891888,
      "componentType": 5126,
      "count": 6020,
      "max": [
        0.99999707937240601,
        0.97515535354614258,
        1,
        1
      ],
      "min": [
        -0.99999755620956421,
        -0.99707180261611938,
        -1,
        -1
      ],
      "type": "VEC4"
    },
    {
      "bufferView": 1,
      "byteOffset": 445944,
      "componentType": 5126,
      "count": 6020,
      "max": [
        0.97829204797744751,
        0.11298981308937073
      ],
      "min": [
        0.00244140625,
        0.037800777703523636
      ],
      "type": "VEC2"
    },
    {
      "bufferView": 0,
      "byteOffset": 1265664,
      "componentType": 5125,
      "count": 34080,
      "max": [
        6019
      ],
      "min": [
        0
      ],
      "type": "SCALAR"
    },
    {
      "bufferView": 2,
      "byteOffset": 1482312,
      "componentType": 5126,
      "count": 10615,
      "max": [
        10.253242492675781,
        0.065962761640548706,
        0.3241010308265686
      ],
      "min": [
        10.062996864318848,
        -0.41097679734230042,
        -0.34524473547935486
      ],
      "type": "VEC3"
    },
    {
      "bufferView": 2,
      "byteOffset": 1609692,
      "componentType": 5126,
      "count": 10615,
      "max": [
        1,
        0.99996882677078247,
        0.99987906217575073
      ],
      "min": [
        -0.99974679946899414,
        -0.99996882677078247,
        -0.99987912178039551
      ],
      "type": "VEC3"
    },
    {
      "bufferView": 3,
      "byteOffset": 988208,
      "componentType": 5126,
      "count": 10615,
      "max": [
        0.96321362257003784,
        0.99999958276748657,
        0.99999630451202393,
        1
      ],
      "min": [
        -0.98119485378265381,
        -0.99999457597732544,
        -0.99997013807296753,
        1
      ],
      "type": "VEC4"
    },
    {
      "bufferView": 1,
      "byteOffset": 494104,
      "componentType": 5126,
      "count": 10615,
      "max": [
        0.94454675912857056,
        0.13297049701213837
      ],
      "min": [
        0.46249032020568848,
        0.00244140625
      ],
      "type": "VEC2"
    },
    {
      "bufferView": 0,
      "byteOffset": 1401984,
      "componentType": 5125,
      "count": 59904,
      "max": [
        10614
      ],
      "min": [
        0
      ],
      "type": "SCALAR"
    },
    {
      "bufferView": 2,
      "byteOffset": 1737072,
      "componentType": 5126,
      "count": 24116,
      "max": [
        12.982362747192383,
        0.065941840410232544,
        0.62885069847106934
      ],
      "min": [
        10.250152587890625,
        -0.41095602512359619,
        -0.6499936580657959
      ],
      "type": "VEC3"
    },
    {
      "bufferView": 2,
      "byteOffset": 2026464,
      "componentType": 5126,
      "count": 24116,
      "max": [
        1,
        1,
        0.99998331069946289
      ],
      "min": [
        -1,
        -1,
        -0.99998331069946289
      ],
      "type": "VEC3"
    },
    {
      "bufferView": 3,
      "byteOffset": 1158048,
      "componentType": 5126,
      "count": 24116,
      "max": [
        0.99996840953826904,
        0.97532427310943604,
        0.99486202001571655,
        1
      ],
      "min": [
        -0.99996829032897949,
        -0.97527539730072021,
        -1,
        -1
      ],
      "type": "VEC4"
    },
    {
      "bufferView": 1,
      "byteOffset": 579024,
      "componentType": 5126,
      "count": 24116,
      "max": [
        0.85835939645767212,
        0.15890328586101532
      ],
      "min": [
        0.039575386792421341,
        0.00244140625
      ],
      "type": "VEC2"
    },
    {
      "bufferView": 0,
      "byteOffset": 1641600,
      "componentType": 5125,
      "count": 135696,
      "max": [
        24115
      ],
      "min": [
        0
      ],
      "type": "SCALAR"
    },
    {
      "bufferView": 2,
      "byteOffset": 2315856,
      "componentType": 5126,
      "count": 3457,
      "max": [
        12.743413925170898,
        -0.13554708659648895,
        0.22515207529067993
      ],
      "min": [
        12.288479804992676,
        -0.25674599409103394,
        -0.24657391011714935
      ],
      "type": "VEC3"
    },
    {
      "bufferView": 2,
      "byteOffset": 2357340,
      "componentType": 5126,
      "count": 3457,
      "max": [
        1,
        0.99706286191940308,
        0.99368053674697876
      ],
      "min": [
        -1,
        -0.99706220626831055,
        -0.99368321895599365
      ],
      "type": "VEC3"
    },
    {
      "bufferView": 3,
      "byteOffset": 1543904,
      "componentType": 5126,
      "count": 3457,
      "max": [
        0.98778796195983887,
        0.99995201826095581,
        0.99953973293304443,
        1
      ],
      "min": [
        -0.99632132053375244,
        -0.99999880790710449,
        -0.99999439716339111,
        -1
      ],
      "type": "VEC4"
    },
    {
      "bufferView": 1,
      "byteOffset": 771952,
      "componentType": 5126,
      "count": 3457,
      "max": [
        0.9344291090965271,
        0.070129573345184326
      ],
      "min": [
        0.00244140625,
        0.00244140625
      ],
      "type": "VEC2"
    },
    {
      "bufferView": 0,
      "byteOffset": 2184384,
      "componentType": 5125,
      "count": 19008,
      "max": [
        3456
      ],
      "min": [
        0
      ],
      "type": "SCALAR"
    }
  ],
  "asset": {
    "extras": {
      "author": "oleg.ratiev (https://sketchfab.com/oleg.ratiev)",
      "license": "CC-BY-4.0 (http://creativecommons.org/licenses/by/4.0/)",
      "source": "https://sketchfab.com/3d-models/the-lord-of-the-rings-anduril-sword-9e06ca6cc7d242a4b113485ff28f503b",
      "title": "The Lord of the Rings - Anduril sword"
    },
    "generator": "Sketchfab-9.24.0",
    "version": "2.0"
  },
  "bufferViews": [
    {
      "buffer": 0,
      "byteLength": 2260416,
      "byteOffset": 0,
      "name": "floatBufferViews",
      "target": 34963
    },
    {
      "buffer": 0,
      "byteLength": 799608,
      "byteOffset": 2260416,
      "byteStride": 8,
      "name": "floatBufferViews",
      "target": 34962
    },
    {
      "buffer": 0,
      "byteLength": 2398824,
      "byteOffset": 3060024,
      "byteStride": 12,
      "name": "floatBufferViews",
      "target": 34962
    },
    {
      "buffer": 0,
      "byteLength": 1599216,
      "byteOffset": 5458848,
      "byteStride": 16,
      "name": "floatBufferViews",
      "target": 34962
    }
  ],
  "buffers": [
    {
      "byteLength": 7058064,
      "uri": "scene.bin"
    }
  ],
  "extensionsRequired": [
    "KHR_materials_pbrSpecularGlossiness"
  ],
  "extensionsUsed": [
    "KHR_materials_pbrSpecularGlossiness"
  ],
  "images": [
    {
      "uri": "textures/lambert1_diffuse.png"
    },
    {
      "uri": "textures/lambert1_specularGlossiness.png"
    },
    {
      "uri": "textures/lambert1_normal.png"
    }
  ],
  "materials": [
    {
      "doubleSided": true,
      "extensions": {
        "KHR_materials_pbrSpecularGlossiness": {
          "diffuseFactor": [
            0.15947246043310292,
            0.15947246043310292,
            0.15947246043310292,
            1
          ],
          "diffuseTexture": {
            "index": 0,
            "texCoord": 0
          },
          "glossinessFactor": 1,
          "specularFactor": [
            0.27479031285052929,
            0.27479031285052929,
            0.27479031285052929
          ],
          "specularGlossinessTexture": {
            "index": 1,
            "texCoord": 0
          }
        }
      },
      "name": "lambert1",
      "normalTexture": {
        "index": 2,
        "scale": 1,
        "texCoord": 0
      }
    }
  ],
  "meshes": [
    {
      "name": "blade_lambert1_0",
      "primitives": [
        {
          "attributes": {
            "NORMAL": 1,
            "POSITION": 0,
            "TANGENT": 2,
            "TEXCOORD_0": 3
          },
          "indices": 4,
          "material": 0,
          "mode": 4
        }
      ]
    },
    {
      "name": "garda_lambert1_0",
      "primitives": [
        {
          "attributes": {
            "NORMAL": 6,
            "POSITION": 5,
            "TANGENT": 7,
            "TEXCOORD_0": 8
          },
          "indices": 9,
          "material": 0,
          "mode": 4
        }
      ]
    },
    {
      "name": "polySurface2_lambert1_0",
      "primitives": [
        {
          "attributes": {
            "NORMAL": 11,
            "POSITION": 10,
            "TANGENT": 12,
            "TEXCOORD_0": 13
          },
          "indices": 14,
          "material": 0,
          "mode": 4
        }
      ]
    },
    {
      "name": "polySurface1_lambert1_0",
      "primitives": [
        {
          "attributes": {
            "NORMAL": 16,
            "POSITION": 15,
            "TANGENT": 17,
            "TEXCOORD_0": 18
          },
          "indices": 19,
          "material": 0,
          "mode": 4
        }
      ]
    },
    {
      "name": "grip_ring_top_lambert1_0",
      "primitives": [
        {
          "attributes": {
            "NORMAL": 21,
            "POSITION": 20,
            "TANGENT": 22,
            "TEXCOORD_0": 23
          },
          "indices": 24,
          "material": 0,
          "mode": 4
        }
      ]
    },
    {
      "name": "grip_lambert1_0",
      "primitives": [
        {
          "attributes": {
            "NORMAL": 26,
            "POSITION": 25,
            "TANGENT": 27,
            "TEXCOORD_0": 28
          },
          "indices": 29,
          "material": 0,
          "mode": 4
        }
      ]
    },
    {
      "name": "grip_ring_bot_lambert1_0",
      "primitives": [
        {
          "attributes": {
            "NORMAL": 31,
            "POSITION": 30,
            "TANGENT": 32,
            "TEXCOORD_0": 33
          },
          "indices": 34,
          "material": 0,
          "mode": 4
        }
      ]
    },
    {
      "name": "pommel_lambert1_0",
      "primitives": [
        {
          "attributes": {
            "NORMAL": 36,
            "POSITION": 35,
            "TANGENT": 37,
            "TEXCOORD_0": 38
          },
          "indices": 39,
          "material": 0,
          "mode": 4
        }
      ]
    },
    {
      "name": "pommel_decor_lambert1_0",
      "primitives": [
        {
          "attributes": {
            "NORMAL": 41,
            "POSITION": 40,
            "TANGENT": 42,
            "TEXCOORD_0": 43
          },
          "indices": 44,
          "material": 0,
          "mode": 4
        }
      ]
    }
  ],
  "nodes": [
    {
      "children": [
        1
      ],
      "name": "RootNode (gltf orientation matrix)",
      "rotation": [
        -0.70710678118654746,
        -0,
        -0,
        0.70710678118654757
      ]
    },
    {
      "children": [
        2
      ],
      "matrix": [
        0.0083772447472938438,
        0,
        0.15203983843956959,
        0,
        0,
        0.15227045118808746,
        0,
        0,
        -0.15203983843956959,
        0,
        0.0083772447472938438,
        0,
        0.10625238716602325,
        0,
        -0.012787146493792534,
        1
      ],
      "name": "RootNode (model correction matrix)"
    },
    {
      "children": [
        3
      ],
      "matrix": [
        1,
        0,
        0,
        0,
        0,
        0,
        1,
        0,
        0,
        -1,
        0,
        0,
        0,
        0,
        0,
        1
      ],
      "name": "c21ab5ae821643c3816a10f02af30e54.fbx"
    },
    {
      "children": [
        4
      ],
      "name": "RootNode"
    },
    {
      "children": [
        5,
        7,
        9,
        11,
        13,
        15,
        17,
        19,
        21
      ],
      "matrix": [
        0.3281366229057312,
        0,
        0,
        0,
        0,
        0.3281366229057312,
        0,
        0,
        0,
        0,
        0.3281366229057312,
        0,
        -0.015767328441143036,
        0.054771285504102707,
        -0.062283962965011597,
        1
      ],
      "name": "LoR_sword1"
    },
    {
      "children": [
        6
      ],
      "name": "blade"
    },
    {
      "mesh": 0,
      "name": "blade_lambert1_0"
    },
    {
      "children": [
        8
      ],
      "name": "garda"
    },
    {
      "mesh": 1,
      "name": "garda_lambert1_0"
    },
    {
      "children": [
        10
      ],
      "name": "polySurface2"
    },
    {
      "mesh": 2,
      "name": "polySurface2_lambert1_0"
    },
    {
      "children": [
        12
      ],
      "name": "polySurface1"
    },
    {
      "mesh": 3,
      "name": "polySurface1_lambert1_0"
    },
    {
      "children": [
        14
      ],
      "matrix": [
        0.98864573240280151,
        0,
        0,
        0,
        0,
        1.0095216035842896,
        0,
        0,
        0,
        0,
        1.0325511693954468,
        0,
        0.093101248145103455,
        0.0016380705637857318,
        0.00036207991070114076,
        1
      ],
      "name": "grip_ring_top"
    },
    {
      "mesh": 4,
      "name": "grip_ring_top_lambert1_0"
    },
    {
      "children": [
        16
      ],
      "name": "grip"
    },
    {
      "mesh": 5,
      "name": "grip_lambert1_0"
    },
    {
      "children": [
        18
      ],
      "name": "grip_ring_bot"
    },
    {
      "mesh": 6,
      "name": "grip_ring_bot_lambert1_0"
    },
    {
      "children": [
        20
      ],
      "name": "pommel"
    },
    {
      "mesh": 7,
      "name": "pommel_lambert1_0"
    },
    {
      "children": [
        22
      ],
      "matrix": [
        1.0313458442687988,
        0,
        0,
        0,
        0,
        1.0313458442687988,
        0,
        0,
        0,
        0,
        1.0313458442687988,
        0,
        -0.40374264121055603,
        0.031891543418169022,
        0.00033574382541701198,
        1
      ],
      "name": "pommel_decor"
    },
    {
      "mesh": 8,
      "name": "pommel_decor_lambert1_0"
    }
  ],
  "samplers": [
    {
      "magFilter": 9729,
      "minFilter": 9987,
      "wrapS": 10497,
      "wrapT": 10497
    }
  ],
  "scene": 0,
  "scenes": [
    {
      "name": "OSG_Scene",
      "nodes": [
        0
      ]
    }
  ],
  "textures": [
    {
      "sampler": 0,
      "source": 0
    },
    {
      "sampler": 0,
      "source": 1
    },
    {
      "sampler": 0,
      "source": 2
    }
  ]
}

